<svg width="24" height="24" viewBox="0 0 24 24" fill="none" xmlns="http://www.w3.org/2000/svg">
<path d="M20 10.38C18.4271 10.3833 16.893 9.89998 15.6143 8.99825V15.2848C15.6139 16.4491 15.2525 17.5855 14.5783 18.5421C13.9041 19.4987 12.9492 20.2298 11.8415 20.6377C10.7338 21.0456 9.52599 21.1108 8.37962 20.8246C7.23324 20.5384 6.20296 19.9144 5.42657 19.0361C4.65017 18.1578 4.16468 17.0671 4.03501 15.9098C3.90535 14.7525 4.1377 13.5839 4.70099 12.5601C5.26427 11.5364 6.13164 10.7063 7.1871 10.181C8.24255 9.65571 9.43576 9.46018 10.6071 9.62057V12.7814C10.0715 12.6154 9.49633 12.6203 8.96368 12.7953C8.43103 12.9703 7.96816 13.3065 7.64118 13.756C7.31419 14.2054 7.1398 14.745 7.1429 15.2978C7.14601 15.8506 7.32645 16.3883 7.65846 16.8341C7.99048 17.28 8.45709 17.6111 8.99167 17.7803C9.52625 17.9495 10.1015 17.9481 10.6352 17.7763C11.1689 17.6045 11.6339 17.2711 11.9636 16.8236C12.2934 16.3762 12.4711 15.8376 12.4714 15.2848V3H15.6143C15.6125 3.26168 15.6352 3.52297 15.6821 3.78055C15.7914 4.3547 16.0185 4.90089 16.3495 5.38572C16.6805 5.87056 17.1084 6.28385 17.6071 6.60035C18.3171 7.06194 19.1492 7.30772 20 7.30706V10.38Z" fill="white"/>
</svg>
